# xmcd
#
# Track frame offsets: 
#        150
#        14777
#        29540
#        69065
#        95952
#        110082
#        160432
#        180462
#
# Disc length: 2691 seconds
#
# Revision: 2
# Processed by: cddbd v1.5.2PL0 Copyright (c) Steve Scherf et al.
# Submitted via: ExactAudioCopy v1.0b2
#
DISCID=6d0a8108
DTITLE=Stevie Ray Vaughan And Double Trouble - In Memoriam CD3
DYEAR=1984
DGENRE=Blues
TTITLE0=Love Struck Baby
TTITLE1=Tell Me
TTITLE2=Texas Flood
TTITLE3=Wham
TTITLE4=Stang's Swang
TTITLE5=Lenny
TTITLE6=Pride And Joy
TTITLE7=Rude Mood
EXTD=
EXTT0=
EXTT1=
EXTT2=
EXTT3=
EXTT4=
EXTT5=
EXTT6=
EXTT7=
PLAYORDER=
